$MeshFormat
4.1 0 8
$EndMeshFormat
$PhysicalNames
2
2 1 "Absorbing"
3 2 "Domain"
$EndPhysicalNames
$Entities
8 12 6 1
1 -5 -5 -5 0 
2 5 -5 -5 0 
3 5 5 -5 0 
4 -5 5 -5 0 
5 -5 -5 5 0 
6 5 -5 5 0 
7 5 5 5 0 
8 -5 5 5 0 
1 -5 -5 -5 5 -5 -5 0 2 1 -2 
2 5 -5 -5 5 5 -5 0 2 2 -3 
3 -5 5 -5 5 5 -5 0 2 3 -4 
4 -5 -5 -5 -5 5 -5 0 2 4 -1 
5 -5 -5 5 5 -5 5 0 2 5 -6 
6 5 -5 5 5 5 5 0 2 6 -7 
7 -5 5 5 5 5 5 0 2 7 -8 
8 -5 -5 5 -5 5 5 0 2 8 -5 
9 -5 -5 -5 -5 -5 5 0 2 1 -5 
10 5 -5 -5 5 -5 5 0 2 2 -6 
11 5 5 -5 5 5 5 0 2 3 -7 
12 -5 5 -5 -5 5 5 0 2 4 -8 
19 -5 -5 -5 5 5 -5 1 1 4 1 2 3 4 
20 -5 -5 5 5 5 5 1 1 4 -5 -8 -7 -6 
21 -5 -5 -5 5 -5 5 1 1 4 -1 9 5 -10 
22 5 -5 -5 5 5 5 1 1 4 -2 10 6 -11 
23 -5 5 -5 5 5 5 1 1 4 -3 11 7 -12 
24 -5 -5 -5 -5 5 5 1 1 4 -4 12 8 -9 
26 -5 -5 -5 5 5 5 1 2 6 19 20 21 22 23 24 
$EndEntities
$Nodes
27 172 1 172
0 1 0 1
1
-5 -5 -5
0 2 0 1
2
5 -5 -5
0 3 0 1
3
5 5 -5
0 4 0 1
4
-5 5 -5
0 5 0 1
5
-5 -5 5
0 6 0 1
6
5 -5 5
0 7 0 1
7
5 5 5
0 8 0 1
8
-5 5 5
1 1 0 2
9
10
-1.666666666673069 -5 -5
1.666666666660822 -5 -5
1 2 0 2
11
12
5 -1.666666666673069 -5
5 1.666666666660822 -5
1 3 0 2
13
14
1.666666666673069 5 -5
-1.666666666660822 5 -5
1 4 0 2
15
16
-5 1.666666666673069 -5
-5 -1.666666666660822 -5
1 5 0 2
17
18
-1.666666666673069 -5 5
1.666666666660822 -5 5
1 6 0 2
19
20
5 -1.666666666673069 5
5 1.666666666660822 5
1 7 0 2
21
22
1.666666666673069 5 5
-1.666666666660822 5 5
1 8 0 2
23
24
-5 1.666666666673069 5
-5 -1.666666666660822 5
1 9 0 2
25
26
-5 -5 -1.666666666673069
-5 -5 1.666666666660822
1 10 0 2
27
28
5 -5 -1.666666666673069
5 -5 1.666666666660822
1 11 0 2
29
30
5 5 -1.666666666673069
5 5 1.666666666660822
1 12 0 2
31
32
-5 5 -1.666666666673069
-5 5 1.666666666660822
2 19 0 13
33
34
35
36
37
38
39
40
41
42
43
44
45
0 0 -5
3.333333333333333 -3.333333333333333 -5
1.666666666666667 -1.666666666666667 -5
-1.666666666666667 -1.666666666666667 -5
-3.333333333333333 -3.333333333333333 -5
-4.081845972336851e-12 -3.333333333333333 -5
-1.666666666666667 1.666666666666667 -5
-3.333333333333333 3.333333333333333 -5
-3.333333333333333 4.082290061546701e-12 -5
3.333333333333333 3.333333333333333 -5
1.666666666666667 1.666666666666667 -5
3.333333333333333 -4.082068016941776e-12 -5
4.082734150756551e-12 3.333333333333333 -5
2 20 0 13
46
47
48
49
50
51
52
53
54
55
56
57
58
0 0 5
-3.333333333333333 -3.333333333333333 5
-1.666666666666667 -1.666666666666667 5
1.666666666666667 -1.666666666666667 5
3.333333333333333 -3.333333333333333 5
-4.082401083849163e-12 -3.333333333333333 5
-3.333333333333333 3.333333333333333 5
-1.666666666666667 1.666666666666667 5
-3.333333333333333 4.082179039244238e-12 5
1.666666666666667 1.666666666666667 5
3.333333333333333 3.333333333333333 5
3.333333333333332 -4.082401083849163e-12 5
4.081956994639313e-12 3.333333333333333 5
2 21 0 13
59
60
61
62
63
64
65
66
67
68
69
70
71
0 -5 0
-3.333333333333333 -5 -3.333333333333333
-1.666666666666667 -5 -1.666666666666667
1.666666666666667 -5 -1.666666666666667
3.333333333333333 -5 -3.333333333333333
-4.082401083849163e-12 -5 -3.333333333333333
-3.333333333333333 -5 3.333333333333333
-1.666666666666667 -5 1.666666666666667
-3.333333333333333 -5 -4.082179039244238e-12
1.666666666666667 -5 1.666666666666667
3.333333333333333 -5 3.333333333333333
3.333333333333332 -5 -4.082401083849163e-12
-4.082401083849163e-12 -5 3.333333333333333
2 22 0 13
72
73
74
75
76
77
78
79
80
81
82
83
84
5 0 0
5 -3.333333333333333 -3.333333333333333
5 -1.666666666666667 -1.666666666666667
5 1.666666666666667 -1.666666666666667
5 3.333333333333333 -3.333333333333333
5 -4.082401083849163e-12 -3.333333333333333
5 -3.333333333333333 3.333333333333333
5 -1.666666666666667 1.666666666666667
5 -3.333333333333333 -4.082179039244238e-12
5 1.666666666666667 1.666666666666667
5 3.333333333333333 3.333333333333333
5 3.333333333333332 -4.082401083849163e-12
5 -4.082401083849163e-12 3.333333333333333
2 23 0 13
85
86
87
88
89
90
91
92
93
94
95
96
97
0 5 0
3.333333333333333 5 -3.333333333333333
1.666666666666667 5 -1.666666666666667
-1.666666666666667 5 -1.666666666666667
-3.333333333333333 5 -3.333333333333333
4.082401083849163e-12 5 -3.333333333333333
3.333333333333333 5 3.333333333333333
1.666666666666667 5 1.666666666666667
3.333333333333333 5 -4.082179039244238e-12
-1.666666666666667 5 1.666666666666667
-3.333333333333333 5 3.333333333333333
-3.333333333333332 5 -4.082401083849163e-12
4.082401083849163e-12 5 3.333333333333333
2 24 0 13
98
99
100
101
102
103
104
105
106
107
108
109
110
-5 0 0
-5 3.333333333333333 -3.333333333333333
-5 1.666666666666667 -1.666666666666667
-5 -1.666666666666667 -1.666666666666667
-5 -3.333333333333333 -3.333333333333333
-5 4.082401083849163e-12 -3.333333333333333
-5 -1.666666666666667 1.666666666666667
-5 -3.333333333333333 3.333333333333333
-5 -3.333333333333332 -4.082401083849163e-12
-5 3.333333333333333 3.333333333333333
-5 1.666666666666667 1.666666666666667
-5 3.333333333333333 -4.082179039244238e-12
-5 4.082401083849163e-12 3.333333333333333
3 26 0 62
111
112
113
114
115
116
117
118
119
120
121
122
123
124
125
126
127
128
129
130
131
132
133
134
135
136
137
138
139
140
141
142
143
144
145
146
147
148
149
150
151
152
153
154
155
156
157
158
159
160
161
162
163
164
165
166
167
168
169
170
171
172
0 1.666666666666667 -3.333333333333334
0 3.333333333333333 -1.666666666666667
-1.666666666666667 3.333333333333334 0
-3.333333333333333 1.666666666666667 0
-3.333333333333334 0 -1.666666666666667
-1.666666666666667 0 -3.333333333333333
3.333333333333334 0 -1.666666666666667
1.666666666666667 0 -3.333333333333333
1.666666666666667 0 0
-1.666666666666666 0 0
3.333333333333334 1.666666666666667 0
1.666666666666667 3.333333333333333 0
-1.666666666666667 1.666666666666667 -1.666666666666667
1.666666666666667 1.666666666666666 -1.666666666666667
2.220446049250313e-16 0 -1.666666666666666
6.661338147750939e-16 1.666666666666667 0
-1.666666666666667 -3.333333333333334 0
-3.333333333333333 -1.666666666666667 0
-3.333333333333334 0 1.666666666666667
-1.666666666666667 0 3.333333333333333
0 -1.666666666666667 3.333333333333334
0 -3.333333333333333 1.666666666666667
3.333333333333334 -1.666666666666667 0
1.666666666666667 -3.333333333333333 0
3.333333333333334 0 1.666666666666667
1.666666666666667 0 3.333333333333333
-1.666666666666667 -1.666666666666667 1.666666666666667
6.661338147750939e-16 -1.666666666666667 0
1.666666666666667 -1.666666666666666 1.666666666666667
4.440892098500626e-16 0 1.666666666666666
0 -3.333333333333334 -1.666666666666667
0 -1.666666666666667 -3.333333333333333
-1.666666666666667 -1.666666666666667 -1.666666666666666
1.666666666666667 -1.666666666666667 -1.666666666666666
0 3.333333333333334 1.666666666666667
0 1.666666666666667 3.333333333333333
-1.666666666666667 1.666666666666667 1.666666666666666
1.666666666666667 1.666666666666667 1.666666666666666
-3.333333333333333 -3.333333333333333 1.666666666666667
-3.333333333333333 -3.333333333333333 -1.666666666666667
-1.666666666666667 -3.333333333333333 3.333333333333333
1.666666666666666 -3.333333333333333 3.333333333333333
-3.333333333333333 1.666666666666667 3.333333333333333
-3.333333333333333 -1.666666666666667 3.333333333333333
-3.333333333333333 3.333333333333333 1.666666666666667
-3.333333333333333 3.333333333333333 -1.666666666666667
-3.333333333333333 1.666666666666667 -3.333333333333333
-3.333333333333333 -1.666666666666666 -3.333333333333333
-1.666666666666667 3.333333333333333 3.333333333333333
1.666666666666667 3.333333333333333 3.333333333333333
-1.666666666666666 3.333333333333332 -3.333333333333333
1.666666666666667 3.333333333333333 -3.333333333333333
3.333333333333333 1.666666666666666 3.333333333333332
3.333333333333333 -1.666666666666667 3.333333333333333
3.333333333333333 -3.333333333333333 1.666666666666667
3.333333333333333 -3.333333333333333 -1.666666666666667
-1.666666666666667 -3.333333333333333 -3.333333333333333
1.666666666666667 -3.333333333333333 -3.333333333333333
3.333333333333333 3.333333333333332 -1.666666666666667
3.333333333333333 3.333333333333333 1.666666666666667
3.333333333333333 1.666666666666667 -3.333333333333333
3.333333333333333 -1.666666666666667 -3.333333333333333
$EndNodes
$Elements
7 48 1 48
2 19 21 4
1 1 2 33 9 10 34 35 36 37 38 
2 4 1 33 15 16 37 36 39 40 41 
3 2 3 33 11 12 42 43 35 34 44 
4 3 4 33 13 14 40 39 43 42 45 
2 20 21 4
5 5 46 6 47 48 49 50 18 17 51 
6 8 46 5 52 53 48 47 24 23 54 
7 6 46 7 50 49 55 56 20 19 57 
8 7 46 8 56 55 53 52 22 21 58 
2 21 21 4
9 1 59 2 60 61 62 63 10 9 64 
10 5 59 1 65 66 61 60 25 26 67 
11 2 59 6 63 62 68 69 28 27 70 
12 6 59 5 69 68 66 65 17 18 71 
2 22 21 4
13 2 72 3 73 74 75 76 12 11 77 
14 6 72 2 78 79 74 73 27 28 80 
15 3 72 7 76 75 81 82 30 29 83 
16 7 72 6 82 81 79 78 19 20 84 
2 23 21 4
17 3 85 4 86 87 88 89 14 13 90 
18 7 85 3 91 92 87 86 29 30 93 
19 4 85 8 89 88 94 95 32 31 96 
20 8 85 7 95 94 92 91 21 22 97 
2 24 21 4
21 4 98 1 99 100 101 102 16 15 103 
22 1 98 5 102 101 104 105 26 25 106 
23 8 98 4 107 108 100 99 31 32 109 
24 5 98 8 105 104 108 107 23 24 110 
3 26 29 24
25 33 85 98 72 111 112 113 114 115 116 117 118 119 120 121 122 123 124 125 126 
26 59 98 46 72 127 128 129 130 131 132 133 134 135 136 119 120 137 138 139 140 
27 59 33 98 72 141 142 116 115 128 127 133 134 119 120 117 118 143 144 138 125 
28 98 85 46 72 114 113 145 146 130 129 119 120 135 136 121 122 147 126 140 148 
29 98 5 1 59 104 105 26 25 102 101 127 128 61 60 66 65 106 149 150 67 
30 46 5 59 6 48 47 65 66 132 131 50 49 69 68 18 17 151 51 152 71 
31 8 46 5 98 52 53 48 47 24 23 108 107 104 105 129 130 54 153 110 154 
32 8 4 85 98 32 31 89 88 94 95 108 107 114 113 100 99 96 109 155 156 
33 4 1 33 98 15 16 37 36 39 40 100 99 115 116 101 102 41 103 157 158 
34 85 8 46 7 94 95 52 53 146 145 91 92 56 55 21 22 159 97 160 58 
35 4 85 33 3 89 88 112 111 39 40 13 14 42 43 86 87 161 90 45 162 
36 7 6 46 72 20 19 50 49 55 56 81 82 135 136 79 78 57 84 163 164 
37 72 6 59 2 79 78 69 68 134 133 73 74 63 62 27 28 165 80 166 70 
38 1 33 59 2 37 36 142 141 61 60 10 9 63 62 34 35 167 38 64 168 
39 3 7 85 72 29 30 91 92 87 86 75 76 121 122 81 82 93 83 169 170 
40 72 33 3 2 117 118 43 42 76 75 73 74 11 12 34 35 171 172 77 44 
41 98 1 33 59 101 102 37 36 116 115 127 128 141 142 61 60 158 150 143 167 
42 46 5 98 59 48 47 105 104 129 130 132 131 127 128 66 65 154 151 137 149 
43 46 8 85 98 53 52 95 94 145 146 129 130 114 113 108 107 159 153 147 155 
44 33 85 4 98 111 112 88 89 40 39 115 116 100 99 114 113 161 123 157 156 
45 6 59 46 72 69 68 132 131 49 50 79 78 135 136 133 134 152 165 164 139 
46 85 33 3 72 112 111 43 42 86 87 121 122 75 76 117 118 162 124 169 171 
47 46 85 7 72 146 145 92 91 56 55 135 136 81 82 121 122 160 148 163 170 
48 72 59 33 2 133 134 141 142 118 117 73 74 34 35 63 62 144 166 172 168 
$EndElements
